<?xml version="1.0" encoding="UTF-8" standalone="no"?>
<svg width="441px" height="205px" viewBox="0 0 441 205" version="1.1" xmlns="http://www.w3.org/2000/svg" xmlns:xlink="http://www.w3.org/1999/xlink" xmlns:sketch="http://www.bohemiancoding.com/sketch/ns">
    <!-- Generator: Sketch 3.0.3 (7891) - http://www.bohemiancoding.com/sketch -->
    <title>logo</title>
    <desc>Created with Sketch.</desc>
    <defs></defs>
    <g id="Page-1" stroke="none" stroke-width="1" fill="none" fill-rule="evenodd" sketch:type="MSPage">
        <g id="front" sketch:type="MSArtboardGroup" transform="translate(-88.000000, -200.000000)" fill="#791D7E">
            <g id="logo" sketch:type="MSLayerGroup" transform="translate(88.000000, 200.000000)">
                <text id="®" sketch:type="MSTextLayer" font-family="Helvetica" font-size="24" font-weight="bold">
                    <tspan x="423" y="72">®</tspan>
                </text>
                <path d="M401.225,63.833 C392.178,63.954 385.751,68.526 381.333,79.835 C376.527,92.136 369.271,110.645 363.821,123.176 C362.483,126.249 360.964,129.019 357.761,129.061 C353.915,129.112 353.043,124.726 352.55,120.739 C351.405,111.487 351.991,87.75 351.401,73.202 C350.9,60.889 347.291,57.722 341.485,55.237 C335.837,52.821 325.065,54.406 319.566,56.053 C320.438,74.399 319.87,123.819 327.599,138.604 C332.228,147.46 337.627,152.459 351.622,154.546 C346.836,165.765 338.564,177.427 326.239,177.591 C318.897,177.689 313.656,174.611 307.596,168.398 C300.005,171.383 295.499,176.212 295.54,185.323 C295.597,197.56 313.374,205.19 328.059,204.996 C344.753,204.774 355.983,198.229 367.444,181.555 C378.906,164.88 400.038,115.026 417.804,71.518 C414.775,68.674 409.117,63.729 401.225,63.833" id="Fill-9" sketch:type="MSShapeGroup"></path>
                <path d="M308.796,143.605 C313.74,137.727 310.431,128.373 305.123,123.723 C302.069,126.078 298.674,128.397 294.04,128.459 C288.009,128.539 285.237,125.08 285.111,115.639 C284.936,102.452 288.881,82.703 293.206,61.506 C296.967,43.081 300.529,24.729 300.405,15.339 C300.302,7.473 295.938,1.499 287.11,1.616 C280.556,1.704 276.384,3.507 270.291,5.511 C263.363,42.083 249.214,110.171 259.799,137.044 C264.04,147.811 272.887,153.655 284.773,153.497 C294.563,153.368 303.892,149.44 308.796,143.605" id="Fill-6" sketch:type="MSShapeGroup"></path>
                <path d="M246.271,57.603 C250.411,53.351 248.807,44.456 245.511,39.779 C239.101,40.913 231.008,41.267 222.869,41.128 C223.583,35.611 224.97,28.163 223.923,21.707 C222.452,12.647 211.264,13.089 202.732,15.825 C200.497,25.165 196.943,34.129 190.998,40.634 C182.61,40.956 173.198,41.501 169.806,46.554 C166.548,51.404 166.448,60.367 169.64,63.734 C177.365,62.713 184.682,62.747 190.846,62.796 C186.174,92.587 185.158,119.705 193.172,134.905 C197.601,143.306 206.313,147.827 217.57,147.678 C232.779,147.476 243.54,139.368 246.024,131.214 C247.909,125.025 243.636,119.269 239.002,115.922 C235.373,119.117 231.042,122.059 226.147,122.124 C220.728,122.196 216.959,117.402 216.85,109.186 C216.688,96.862 218.564,76.504 220.73,61.788 C232.449,62.157 242.133,61.854 246.271,57.603" id="Fill-7" sketch:type="MSShapeGroup"></path>
                <path d="M140.687,37.477 C150.459,37.347 158.125,28.95 157.812,18.724 C157.498,8.494 149.32,0.308 139.548,0.437 C129.776,0.567 122.11,8.964 122.424,19.193 C122.738,29.42 130.914,37.606 140.687,37.477" id="Fill-4" sketch:type="MSShapeGroup"></path>
                <path d="M172.294,124.119 C168.938,127.481 164.878,130.679 159.983,130.739 C152.992,130.825 151.673,122.974 151.556,117.38 C151.269,103.746 153.853,77.836 153.607,66.124 C153.433,57.865 149.773,52.184 140.991,52.292 C134.173,52.375 127.823,54.726 121.425,58.127 C120.026,88.797 119.275,130.542 128.856,145.461 C132.492,152.146 140.834,157.202 152.896,157.055 C164.066,156.916 176.423,149.788 179.992,140.985 C181.986,136.064 178.567,128.063 172.294,124.119" id="Fill-3" sketch:type="MSShapeGroup"></path>
                <path d="M96.553,1.516 C82.918,1.751 69.288,6.219 49.457,12.157 C29.013,18.28 13.926,20.304 2.781,20.042 C-4.212,32.455 2.519,49.509 16.986,49.509 C24.362,49.509 31.198,48.089 37.906,46.162 C40.001,54.328 41.942,64.635 43.55,74.011 C33.079,75.717 25.557,77.52 22.362,82.218 C18.381,88.072 20.395,97.297 25.203,100.925 C33.7,98.998 40.666,97.879 47.273,96.913 C49.589,111.6 51.704,126.929 50.482,138.975 C49.587,147.808 43.661,153.302 37.718,153.348 C32.31,153.387 28.903,151.674 25.488,149.113 C20.206,151.467 17.621,161.554 20.458,167.81 C23.436,174.375 34.632,177.377 44.074,177.341 C60.913,177.278 71.699,168.013 76.617,157.693 C85.134,139.824 80.62,111.63 78.52,91.479 C89.829,89.638 101.698,87.195 106.288,83.708 C112.599,78.912 109.811,67.611 106.241,62.063 C99.986,64.73 87.667,67.124 75.729,68.997 C73.897,57.982 71.384,46.512 68.808,36.692 C85.22,32.291 102.212,29.035 111.93,30.132 C117.161,17.183 111.602,1.256 96.553,1.516" id="Fill-1" sketch:type="MSShapeGroup"></path>
            </g>
        </g>
    </g>
</svg>