<?xml version="1.0" encoding="utf-8"?>
<!-- Generator: Adobe Illustrator 16.0.0, SVG Export Plug-In . SVG Version: 6.00 Build 0)  -->
<!DOCTYPE svg PUBLIC "-//W3C//DTD SVG 1.1//EN" "http://www.w3.org/Graphics/SVG/1.1/DTD/svg11.dtd">
<svg version="1.1" id="Layer_1" xmlns="http://www.w3.org/2000/svg" xmlns:xlink="http://www.w3.org/1999/xlink" x="0px" y="0px"
	 width="685.617px" height="370.503px" viewBox="17.92 175.018 685.617 370.503"
	 enable-background="new 17.92 175.018 685.617 370.503" xml:space="preserve">
<polygon fill="#FFFFFF" points="45.664,228.026 115.154,210.657 183.11,219.342 230.415,185.537 277.701,206.782 291.187,228.026 
	342.157,222.226 387.051,245.972 429.903,200.645 480.146,207.702 500.804,257.944 538.558,266.587 565.358,276.034 
	603.779,259.701 641.748,269.5 653.252,266.033 665.4,251.502 692.757,265.611 678.823,293.998 665.4,293.998 665.4,329.252 
	579.15,515.063 522.999,531.317 487.534,488.465 487.534,450.044 433.844,464.821 393.128,431.69 342.157,467.776 291.187,430.477 
	237.046,464.821 189.039,431.69 183.11,395.964 135.842,395.964 135.842,439.7 94.467,466.299 36.836,431.69 28.955,256.96 "/>
<path fill="#B1E2F2" d="M694.377,274.37c0,13.516-10.962,24.478-24.483,24.478c-13.517,0-24.478-10.96-24.478-24.478
	c0-13.52,10.961-24.48,24.478-24.48C683.415,249.889,694.377,260.85,694.377,274.37z"/>
<g>
	<path fill="#A9D387" d="M88.901,245.972c-4.156,0-7.942,0.992-11.58,3.042c-3.54,1.991-6.25,4.721-8.284,8.344
		c-2.098,3.74-3.12,7.614-3.12,11.86v139.498c0,6.302,2.206,11.602,6.741,16.197c4.557,4.625,9.633,6.777,15.973,6.777
		c6.339,0,11.414-2.152,15.973-6.777c4.535-4.596,6.735-9.896,6.735-16.197v-49.74h45.825c3.123,0,6.004-0.783,8.813-2.392
		c2.867-1.65,5.096-3.798,6.795-6.561c1.633-2.657,2.503-5.669,2.648-9.194c-0.024-3.364-0.824-6.394-2.437-9.263
		c-1.662-2.952-3.81-5.228-6.574-6.962c-2.59-1.622-5.529-2.41-8.976-2.41h-46.095v-38.626h52.706c4.816,0,9.194-1.729,13.368-5.283
		c3.836-4.331,5.698-8.758,5.698-13.52c0-5.256-1.656-9.363-5.207-12.914c-4.013-4.011-8.333-5.878-13.588-5.878H88.901V245.972z"/>
</g>
<g>
	<path fill="#F8E64A" d="M237.227,294.402c-3.858,0.003-7.415,0.931-10.705,2.844c-3.318,1.926-5.868,4.476-7.792,7.792
		c-1.911,3.289-2.843,6.842-2.843,10.859v93.091c0,6.182,1.979,11.034,6.222,15.276c4.237,4.241,9.005,6.214,15.006,6.214
		c6.082,0,10.917-1.995,15.204-6.282c4.291-4.29,6.287-9.209,6.287-15.479v-92.549c0-4.092-0.923-7.657-2.823-10.897
		c-1.944-3.312-4.511-5.894-7.835-7.875C244.677,295.447,241.171,294.465,237.227,294.402z M221.118,228.9
		c-4.7,4.944-6.982,10.454-6.982,16.842c0,6.821,2.187,12.329,6.688,16.829c4.415,4.415,9.745,6.56,16.293,6.56
		c6.542,0,11.875-2.145,16.288-6.56c4.41-4.411,6.554-9.83,6.554-16.559c0-6.537-2.192-11.997-6.694-16.7
		c-4.642-4.831-9.772-7.087-16.147-7.087c-2.995,0-5.78,0.555-8.516,1.703C225.853,225.079,223.402,226.705,221.118,228.9z"/>
</g>
<g>
	<path fill="#F27174" d="M326.955,424.266c4.264,4.238,9.034,6.211,15.001,6.211c6.095,0,10.792-1.946,14.788-6.129l0.148-0.153
		c4.383-4.38,6.421-9.386,6.421-15.745v-79.558h12.992c4.767-0.208,8.661-1.932,12.224-5.408c0.949-1.101,1.816-2.314,2.573-3.614
		c0.692-1.199,1.193-2.394,1.52-3.642c0.338-1.292,0.506-2.529,0.506-3.705c0-4.614-1.612-8.374-5.069-11.834
		c-3.261-3.146-6.974-4.665-11.566-4.665h-12.91v-22.082c0-6.007-2.143-11.295-6.557-16.159c-4.345-4.283-9.139-6.28-15.067-6.28
		c-5.868,0-10.553,1.932-14.732,6.077c-4.37,4.593-6.494,9.724-6.494,15.684v22.76h-12.099c-4.948,0-8.929,1.478-12.503,4.657
		c-3.373,3.236-4.941,6.921-4.941,11.575c0,4.156,1.396,7.485,4.395,10.483c3.83,3.834,8.058,5.615,13.318,5.615h11.563v79.821
		C320.463,414.409,322.585,419.674,326.955,424.266z"/>
</g>
<g>
	<path fill="#E8A1C6" d="M428.211,424.385c4.313,4.099,9.226,6.092,15.012,6.092c5.773,0,10.769-1.984,15.249-6.064
		c4.018-4.298,5.974-9.438,5.974-15.696V249.521c0-3.862-0.901-7.334-2.76-10.608c-1.867-3.294-4.371-5.871-7.654-7.884
		c-3.202-1.956-6.613-2.939-10.425-3c-3.964,0.003-7.598,0.939-10.944,2.866c-3.382,1.945-5.977,4.492-7.943,7.792
		c-1.922,3.228-2.859,6.595-2.859,10.297v160.004C421.859,415.13,423.879,420.026,428.211,424.385z"/>
</g>
<g>
	<path fill="none" d="M608.938,272.417c-6.909,0-13.516,1.619-19.64,4.81c-6.444,3.365-11.613,8.294-15.372,14.698
		c-2.976,5.209-5.222,10.265-6.641,14.949l-1.899,5.73l-2.444-6.822c-2.316-6.714-5.575-12.628-9.69-17.576
		c-4.314-5.192-9.257-9.15-14.692-11.767c-5.501-2.657-11.421-4.004-17.614-4.004c-6.356,0-12.894,1.49-18.871,4.296
		c-4.755,2.185-8.924,5.085-12.486,8.641v-34.749c0-7.779-1.915-15.111-5.711-21.802c-3.76-6.633-8.992-12.028-15.547-16.04
		c-6.665-4.078-14.081-6.208-22.108-6.335c-8.077,0-15.622,1.979-22.409,5.884c-6.747,3.88-12.167,9.212-16.117,15.839
		c-4.017,6.737-6.061,14.113-6.061,21.913v33.047c-4.476-3.638-9.452-6.167-14.86-7.518v-0.567c0-11.852-4.267-22.504-12.736-31.721
		l-0.332-0.347c-8.673-8.665-19.182-13.059-31.246-13.059c-11.977,0-22.352,4.305-30.863,12.812l-0.187,0.187
		c-8.534,8.915-12.861,19.494-12.861,31.45v1.359c-6.345,1.604-12.116,4.718-17.209,9.296l-0.238,0.218
		c-2.552,2.428-4.663,5.058-6.408,7.849c-2.428-3.719-5.31-7.031-8.674-9.855c1.358-1.088,2.672-2.264,3.929-3.522
		c8.754-8.763,13.196-19.726,13.196-32.597c0-12.491-4.377-23.394-13.01-32.408c-8.964-9.334-19.905-14.063-32.515-14.063
		c-5.978,0-11.788,1.161-17.271,3.457c-5.384,2.253-10.315,5.527-14.704,9.791l-0.276,0.279
		c-7.802,8.129-12.233,17.58-13.207,28.141c-0.759-0.907-1.563-1.796-2.421-2.657c-7.559-7.553-16.604-11.383-26.878-11.383H87.446
		c-7.366,0-14.363,1.836-20.798,5.454c-6.542,3.685-11.747,8.909-15.455,15.53c-3.667,6.526-5.527,13.612-5.527,21.063v139.495
		c0,11.33,4.088,21.224,12.151,29.398c8.091,8.211,17.969,12.377,29.36,12.377c11.38,0,21.258-4.164,29.354-12.377
		c8.063-8.178,12.149-18.068,12.149-29.398v-30.936h27.026c6.404,0,12.515-1.644,18.179-4.892
		c5.579-3.213,10.099-7.588,13.441-13.006c3.367-5.475,5.195-11.721,5.432-18.557l0.006-0.33c0-6.647-1.629-12.917-4.849-18.645
		c-3.196-5.679-7.562-10.28-12.987-13.676c-5.594-3.499-11.968-5.274-18.947-5.274h-27.302v-1.033h33.907
		c9.604,0,18.411-3.469,26.176-10.304l0.734-0.718c5.437-5.955,8.866-12.457,10.25-19.401c1.606,2.342,3.444,4.575,5.542,6.673
		c1.257,1.261,2.573,2.44,3.935,3.525c-3.821,3.231-7.04,7.083-9.604,11.499c-3.923,6.752-5.914,14.241-5.914,22.257v93.091
		c0,12.247,4.331,22.784,12.861,31.315c8.53,8.537,18.979,12.861,31.052,12.861c12.156,0,22.668-4.348,31.246-12.928
		c8.58-8.583,12.928-19.186,12.928-31.521v-68.282c4.902,4.421,10.426,7.498,16.488,9.151v58.593
		c0,12.224,4.328,22.94,12.902,31.896l0.158,0.16c8.58,8.58,19.045,12.931,31.118,12.931c12.323,0,22.793-4.395,31.067-13.012
		c8.608-8.656,12.98-19.322,12.98-31.704v-58.18c5.488-1.427,10.542-4.005,15.127-7.701v66.42c0,12.245,4.401,22.849,13.086,31.537
		l0.192,0.187c8.644,8.266,18.993,12.453,30.769,12.453c11.699,0,22.09-4.145,30.99-12.406l0.472-0.474
		c8.261-8.643,12.445-19.263,12.445-31.569v-55.067l30.111,68.293l-18.528,38.232c-2.923,6.096-4.406,12.299-4.406,18.425
		c0,9.143,2.748,17.399,8.154,24.544c5.319,7.026,12.65,12.053,21.718,14.915c5.192,1.723,9.692,2.561,13.768,2.561
		c12.444,0,29.604-5.265,40.646-30.38l67.884-156.107c2.863-6.235,4.318-12.73,4.318-19.312c0-11.301-3.742-20.976-11.077-28.705
		C633.112,277.394,621.93,272.417,608.938,272.417z"/>
	<path fill="#B1E2F2" d="M643.718,259.648c-10.559-6.778-22.644-10.3-35.676-10.3c-10.479,0-20.496,2.456-29.786,7.296
		c-5.425,2.832-10.262,6.351-14.482,10.525c-5.012-4.832-10.565-8.72-16.578-11.624c-8.526-4.106-17.602-6.197-26.975-6.197
		c-3.212,0-6.402,0.256-9.563,0.724v-0.553c0-11.627-2.882-22.603-8.567-32.641c-5.63-9.913-13.431-17.969-23.186-23.932
		c-10.058-6.153-21.16-9.372-33.003-9.566l-0.577-0.003c-11.974,0-23.196,2.966-33.365,8.813
		c-10.042,5.78-18.127,13.731-24.023,23.629c-1.339,2.248-2.509,4.546-3.552,6.881c-12.078-10.376-26.771-15.848-42.818-15.848
		c-15.618,0-29.902,5.146-41.675,14.939c-3.211-8.577-8.169-16.467-14.811-23.397c-13.076-13.621-29.8-20.822-48.359-20.822
		c-8.901,0-17.563,1.738-25.764,5.169c-7.934,3.324-15.155,8.117-21.461,14.244l-0.867,0.876c-2.131,2.221-4.081,4.54-5.874,6.936
		c-6.575-2.29-13.545-3.478-20.79-3.478H86.553c-11.857,0-23.114,2.955-33.476,8.778c-10.727,6.037-19.249,14.585-25.32,25.396
		c-5.862,10.44-8.836,21.782-8.836,33.724v139.493c0,18.11,6.778,34.552,19.587,47.538c12.952,13.141,29.472,20.093,47.773,20.093
		c18.294,0,34.814-6.945,47.763-20.08c12.821-13.001,19.597-29.443,19.597-47.551v-5.086h1.176c5.489,0,10.847-0.701,16.034-2.092
		v7.451c0,18.024,6.67,34.224,19.291,46.842c12.623,12.624,28.729,19.298,46.582,19.298c17.94,0,34.118-6.696,46.782-19.363
		c2.084-2.086,3.994-4.278,5.75-6.55c1.583,2.072,3.29,4.084,5.141,6.015l0.518,0.526c12.661,12.676,28.796,19.372,46.654,19.372
		c18.196,0,34.366-6.792,46.789-19.647c1.682-1.697,3.247-3.463,4.714-5.285c1.613,2.017,3.341,3.976,5.211,5.844l0.557,0.548
		c12.685,12.134,28.575,18.542,45.952,18.542c10.662,0,20.815-2.428,30.047-7.112c-0.617,3.51-0.932,7.045-0.932,10.581
		c0,13.84,4.36,26.916,12.613,37.811c7.952,10.503,19.198,18.308,32.534,22.566c7.363,2.431,14.058,3.616,20.461,3.616
		c26.45,0,48.586-15.846,60.787-43.593l67.871-156.083c4.087-9.016,6.153-18.464,6.153-28.095c0-5.832-0.727-11.461-2.132-16.828
		C670.534,273.325,643.718,259.648,643.718,259.648z M648.934,335.229L581.05,491.337c-11.042,25.115-28.202,30.38-40.646,30.38
		c-4.075,0-8.575-0.838-13.768-2.561c-9.067-2.861-16.398-7.889-21.718-14.914c-5.406-7.146-8.154-15.402-8.154-24.544
		c0-6.127,1.483-12.33,4.406-18.426l18.527-38.231l-30.11-68.294v55.067c0,12.307-4.185,22.927-12.445,31.57l-0.472,0.473
		c-8.9,8.262-19.291,12.406-30.99,12.406c-11.776,0-22.125-4.188-30.769-12.454l-0.192-0.186
		c-8.685-8.688-13.086-19.292-13.086-31.537v-66.42c-4.585,3.696-9.64,6.275-15.127,7.701v58.18c0,12.381-4.372,23.048-12.98,31.704
		c-8.272,8.617-18.743,13.012-31.067,13.012c-12.072,0-22.538-4.351-31.118-12.931l-0.158-0.16
		c-8.574-8.955-12.902-19.672-12.902-31.895v-58.594c-6.062-1.653-11.586-4.73-16.488-9.151v68.282
		c0,12.336-4.348,22.938-12.928,31.521c-8.577,8.579-19.09,12.927-31.246,12.927c-12.073,0-22.522-4.324-31.052-12.861
		c-8.531-8.531-12.861-19.068-12.861-31.315v-93.091c0-8.016,1.991-15.504,5.914-22.257c2.565-4.416,5.783-8.268,9.604-11.499
		c-1.361-1.085-2.677-2.264-3.935-3.525c-2.098-2.098-3.935-4.331-5.542-6.673c-1.385,6.945-4.813,13.445-10.25,19.401l-0.734,0.718
		c-7.765,6.834-16.571,10.304-26.176,10.304h-33.907v1.033h27.3c6.979,0,13.354,1.775,18.947,5.274
		c5.425,3.396,9.791,7.998,12.987,13.676c3.22,5.728,4.849,11.997,4.849,18.645l-0.006,0.33c-0.236,6.835-2.064,13.082-5.432,18.558
		c-3.342,5.418-7.861,9.791-13.441,13.005c-5.664,3.248-11.775,4.893-18.178,4.893h-27.026v30.938
		c0,11.33-4.085,21.221-12.149,29.398c-8.097,8.213-17.975,12.377-29.354,12.377c-11.392,0-21.27-4.166-29.36-12.377
		c-8.063-8.175-12.151-18.068-12.151-29.398V270.321c0-7.451,1.86-14.538,5.527-21.063c3.708-6.621,8.912-11.844,15.455-15.53
		c6.435-3.618,13.432-5.454,20.798-5.454h75.416c10.273,0,19.319,3.83,26.878,11.383c0.859,0.862,1.662,1.75,2.421,2.657
		c0.974-10.562,5.405-20.012,13.207-28.141l0.276-0.279c4.389-4.264,9.319-7.539,14.704-9.791
		c5.483-2.296,11.292-3.457,17.271-3.457c12.61,0,23.55,4.729,32.515,14.063c8.632,9.014,13.01,19.917,13.01,32.408
		c0,12.871-4.441,23.833-13.196,32.596c-1.257,1.258-2.571,2.434-3.929,3.522c3.364,2.824,6.247,6.136,8.674,9.855
		c1.746-2.791,3.856-5.421,6.408-7.849l0.238-0.218c5.094-4.579,10.865-7.693,17.209-9.296v-1.359
		c0-11.956,4.329-22.536,12.861-31.45l0.187-0.186c8.51-8.507,18.886-12.813,30.863-12.813c12.064,0,22.573,4.395,31.246,13.06
		l0.333,0.346c8.469,9.218,12.735,19.87,12.735,31.722v0.567c5.408,1.35,10.385,3.88,14.86,7.518v-33.047
		c0-7.8,2.044-15.175,6.061-21.913c3.952-6.627,9.371-11.959,16.117-15.839c6.787-3.905,14.332-5.884,22.409-5.884
		c8.027,0.128,15.444,2.258,22.108,6.335c6.555,4.011,11.787,9.407,15.547,16.04c3.796,6.691,5.711,14.023,5.711,21.802v34.749
		c3.563-3.556,7.731-6.456,12.486-8.641c5.978-2.806,12.515-4.296,18.871-4.296c6.193,0,12.113,1.348,17.614,4.005
		c5.437,2.617,10.378,6.574,14.692,11.767c4.115,4.948,7.374,10.861,9.69,17.576l2.445,6.822l1.898-5.73
		c1.419-4.683,3.666-9.739,6.642-14.949c3.758-6.404,8.927-11.333,15.371-14.698c6.124-3.192,12.73-4.81,19.641-4.81
		c12.992,0,24.174,4.977,33.236,14.797c7.335,7.73,11.077,17.404,11.077,28.705C653.252,322.5,651.797,328.995,648.934,335.229z"/>
</g>
<g>
	<path fill="#FFFFFF" d="M665.4,280.545v-14.934h6.346c1.593,0,2.752,0.134,3.479,0.402c0.722,0.267,1.298,0.745,1.735,1.432
		c0.437,0.687,0.65,1.47,0.65,2.354c0,1.118-0.332,2.044-0.989,2.773c-0.657,0.731-1.642,1.19-2.952,1.382
		c0.653,0.378,1.189,0.797,1.614,1.251s0.995,1.263,1.717,2.425l1.822,2.913h-3.603l-2.183-3.248
		c-0.774-1.165-1.305-1.895-1.59-2.197c-0.284-0.302-0.587-0.509-0.908-0.62c-0.313-0.113-0.82-0.168-1.513-0.168h-0.611v6.234
		H665.4L665.4,280.545z M668.416,271.928h2.23c1.443,0,2.352-0.061,2.706-0.184c0.36-0.123,0.646-0.332,0.85-0.632
		c0.203-0.3,0.303-0.673,0.303-1.121c0-0.503-0.133-0.908-0.401-1.217c-0.267-0.309-0.646-0.506-1.135-0.587
		c-0.244-0.033-0.978-0.05-2.199-0.05h-2.352v3.791H668.416z"/>
</g>
<g>
	<g>
		<path fill="#B1E2F2" d="M627.047,301.59c-4.809-5.209-10.071-7.594-16.653-7.594c-3.261,0-6.252,0.734-9.146,2.241
			c-2.653,1.385-4.69,3.33-6.229,5.94c-2.095,3.676-3.678,7.201-4.633,10.367l-0.074,0.229l-22.594,68.428l-24.726-69.018
			c-1.455-4.217-3.37-7.745-5.733-10.58c-2.219-2.672-4.61-4.637-7.103-5.839c-2.467-1.19-4.946-1.769-7.589-1.769
			c-3.22,0-6.322,0.724-9.5,2.211c-3.872,1.782-6.776,4.334-8.947,7.84c-2.229,3.6-3.317,7.387-3.317,11.578
			c0,2.651,0.441,4.934,1.349,6.977l43.995,99.784l-23.079,47.628c-1.433,2.977-2.16,5.876-2.16,8.579
			c0,4.146,1.164,7.694,3.557,10.854c2.455,3.246,5.937,5.548,10.646,7.032c3.819,1.266,5.862,1.449,6.746,1.449
			c5.362,0,13.249-1.737,19.861-16.775l67.982-156.322c1.588-3.463,2.322-6.68,2.322-10.016
			C632.023,309.371,630.44,305.168,627.047,301.59z"/>
	</g>
</g>
</svg>
